<?xml version="1.0" encoding="UTF-8" standalone="no"?>
<!-- Created with Inkscape (http://www.inkscape.org/) -->
<svg
   xmlns:dc="http://purl.org/dc/elements/1.1/"
   xmlns:cc="http://web.resource.org/cc/"
   xmlns:rdf="http://www.w3.org/1999/02/22-rdf-syntax-ns#"
   xmlns:svg="http://www.w3.org/2000/svg"
   xmlns="http://www.w3.org/2000/svg"
   xmlns:xlink="http://www.w3.org/1999/xlink"
   xmlns:sodipodi="http://sodipodi.sourceforge.net/DTD/sodipodi-0.dtd"
   xmlns:inkscape="http://www.inkscape.org/namespaces/inkscape"
   width="744.09448819"
   height="1052.3622047"
   id="svg2"
   sodipodi:version="0.32"
   inkscape:version="0.45.1"
   sodipodi:docbase="/Users/ionathan/Desktop"
   sodipodi:docname="thinkcap-icons.svg"
   inkscape:output_extension="org.inkscape.output.svg.inkscape">
  <defs
     id="defs4">
    <linearGradient
       inkscape:collect="always"
       id="linearGradient3134">
      <stop
         style="stop-color:#483737;stop-opacity:1;"
         offset="0"
         id="stop3136" />
      <stop
         style="stop-color:#000000;stop-opacity:0"
         offset="1"
         id="stop3138" />
    </linearGradient>
    <filter
       inkscape:collect="always"
       id="filter3236">
      <feGaussianBlur
         inkscape:collect="always"
         stdDeviation="1.6714286"
         id="feGaussianBlur3238" />
    </filter>
    <linearGradient
       inkscape:collect="always"
       xlink:href="#linearGradient3134"
       id="linearGradient4295"
       gradientUnits="userSpaceOnUse"
       x1="170"
       y1="326.64792"
       x2="170"
       y2="215.21933" />
    <linearGradient
       inkscape:collect="always"
       xlink:href="#linearGradient3134"
       id="linearGradient4305"
       gradientUnits="userSpaceOnUse"
       x1="170"
       y1="326.64792"
       x2="170"
       y2="215.21933" />
    <linearGradient
       inkscape:collect="always"
       xlink:href="#linearGradient3134"
       id="linearGradient4315"
       gradientUnits="userSpaceOnUse"
       x1="170"
       y1="326.64792"
       x2="170"
       y2="215.21933" />
    <linearGradient
       inkscape:collect="always"
       xlink:href="#linearGradient3134"
       id="linearGradient4335"
       gradientUnits="userSpaceOnUse"
       x1="170"
       y1="326.64792"
       x2="170"
       y2="215.21933" />
    <linearGradient
       inkscape:collect="always"
       xlink:href="#linearGradient3134"
       id="linearGradient4441"
       gradientUnits="userSpaceOnUse"
       x1="170"
       y1="326.64792"
       x2="170"
       y2="215.21933" />
    <linearGradient
       inkscape:collect="always"
       xlink:href="#linearGradient3134"
       id="linearGradient2205"
       gradientUnits="userSpaceOnUse"
       x1="170"
       y1="326.64792"
       x2="170"
       y2="215.21933" />
  </defs>
  <sodipodi:namedview
     id="base"
     pagecolor="#ffffff"
     bordercolor="#666666"
     borderopacity="1.0"
     gridtolerance="10000"
     guidetolerance="10"
     objecttolerance="10"
     inkscape:pageopacity="0.0"
     inkscape:pageshadow="2"
     inkscape:zoom="1"
     inkscape:cx="266.37739"
     inkscape:cy="666.59892"
     inkscape:document-units="px"
     inkscape:current-layer="layer1"
     inkscape:window-width="1335"
     inkscape:window-height="1094"
     inkscape:window-x="1239"
     inkscape:window-y="22" />
  <metadata
     id="metadata7">
    <rdf:RDF>
      <cc:Work
         rdf:about="">
        <dc:format>image/svg+xml</dc:format>
        <dc:type
           rdf:resource="http://purl.org/dc/dcmitype/StillImage" />
      </cc:Work>
    </rdf:RDF>
  </metadata>
  <g
     inkscape:label="Layer 1"
     inkscape:groupmode="layer"
     id="layer1">
    <path
       sodipodi:type="arc"
       id="path4435"
       sodipodi:cx="170"
       sodipodi:cy="270.93362"
       sodipodi:rx="55.714287"
       sodipodi:ry="55.714287"
       d="M 225.71429 270.93362 A 55.714287 55.714287 0 1 1  114.28571,270.93362 A 55.714287 55.714287 0 1 1  225.71429 270.93362 z"
       transform="matrix(1.4358974,0,0,1.4358974,-145.10256,-81.670709)"
       style="fill:#000000;filter:url(#filter3236)" />
    <path
       sodipodi:type="arc"
       id="path4437"
       sodipodi:cx="170"
       sodipodi:cy="270.93362"
       sodipodi:rx="55.714287"
       sodipodi:ry="55.714287"
       d="M 225.71429 270.93362 A 55.714287 55.714287 0 1 1  114.28571,270.93362 A 55.714287 55.714287 0 1 1  225.71429 270.93362 z"
       transform="matrix(1.4358974,0,0,1.4358974,-145.10256,-81.670709)"
       style="fill:#ffffff;fill-opacity:1" />
    <path
       sodipodi:type="arc"
       id="path4439"
       sodipodi:cx="170"
       sodipodi:cy="270.93362"
       sodipodi:rx="55.714287"
       sodipodi:ry="55.714287"
       d="M 225.71429 270.93362 A 55.714287 55.714287 0 1 1  114.28571,270.93362 A 55.714287 55.714287 0 1 1  225.71429 270.93362 z"
       transform="matrix(1.4358974,0,0,1.4358974,-145.10256,-81.670709)"
       style="fill:url(#linearGradient4441);fill-opacity:1" />
    <g
       id="g4290"
       transform="translate(-75.33333,-202.33333)">
      <path
         style="fill:#000000;filter:url(#filter3236)"
         transform="matrix(1.4358974,0,0,1.4358974,-73.302558,-72.527849)"
         d="M 225.71429 270.93362 A 55.714287 55.714287 0 1 1  114.28571,270.93362 A 55.714287 55.714287 0 1 1  225.71429 270.93362 z"
         sodipodi:ry="55.714287"
         sodipodi:rx="55.714287"
         sodipodi:cy="270.93362"
         sodipodi:cx="170"
         id="path3142"
         sodipodi:type="arc" />
      <path
         style="fill:#ffffff;fill-opacity:1"
         transform="matrix(1.4358974,0,0,1.4358974,-73.302558,-72.527849)"
         d="M 225.71429 270.93362 A 55.714287 55.714287 0 1 1  114.28571,270.93362 A 55.714287 55.714287 0 1 1  225.71429 270.93362 z"
         sodipodi:ry="55.714287"
         sodipodi:rx="55.714287"
         sodipodi:cy="270.93362"
         sodipodi:cx="170"
         id="path2160"
         sodipodi:type="arc" />
      <path
         style="fill:url(#linearGradient4295);fill-opacity:1"
         transform="matrix(1.4358974,0,0,1.4358974,-73.302558,-72.527849)"
         d="M 225.71429 270.93362 A 55.714287 55.714287 0 1 1  114.28571,270.93362 A 55.714287 55.714287 0 1 1  225.71429 270.93362 z"
         sodipodi:ry="55.714287"
         sodipodi:rx="55.714287"
         sodipodi:cy="270.93362"
         sodipodi:cx="170"
         id="path2162"
         sodipodi:type="arc" />
    </g>
    <g
       id="g4278"
       transform="matrix(-1,0,0,1,257.53958,-200.2143)">
      <path
         id="path3291"
         d="M 118.72381,268.886 L 146.12381,268.886 L 175.32381,314.286 L 146.12381,359.886 L 118.52381,359.486 L 147.52381,314.086 L 118.72381,268.886 z "
         style="fill:#ffffff;fill-rule:evenodd;stroke:none;stroke-width:1px;stroke-linecap:butt;stroke-linejoin:miter;stroke-opacity:1" />
      <rect
         y="268.89548"
         x="179.0667"
         height="90.800003"
         width="19.888653"
         id="rect3299"
         style="fill:#ffffff;stroke:none" />
    </g>
    <g
       id="g4297"
       transform="translate(435.2,-198.47619)">
      <path
         style="fill:#000000;filter:url(#filter3236)"
         transform="matrix(1.4358974,0,0,1.4358974,-73.302558,-72.527849)"
         d="M 225.71429 270.93362 A 55.714287 55.714287 0 1 1  114.28571,270.93362 A 55.714287 55.714287 0 1 1  225.71429 270.93362 z"
         sodipodi:ry="55.714287"
         sodipodi:rx="55.714287"
         sodipodi:cy="270.93362"
         sodipodi:cx="170"
         id="path4299"
         sodipodi:type="arc" />
      <path
         style="fill:#ffffff;fill-opacity:1"
         transform="matrix(1.4358974,0,0,1.4358974,-73.302558,-72.527849)"
         d="M 225.71429 270.93362 A 55.714287 55.714287 0 1 1  114.28571,270.93362 A 55.714287 55.714287 0 1 1  225.71429 270.93362 z"
         sodipodi:ry="55.714287"
         sodipodi:rx="55.714287"
         sodipodi:cy="270.93362"
         sodipodi:cx="170"
         id="path4301"
         sodipodi:type="arc" />
      <path
         style="fill:url(#linearGradient4305);fill-opacity:1"
         transform="matrix(1.4358974,0,0,1.4358974,-73.302558,-72.527849)"
         d="M 225.71429 270.93362 A 55.714287 55.714287 0 1 1  114.28571,270.93362 A 55.714287 55.714287 0 1 1  225.71429 270.93362 z"
         sodipodi:ry="55.714287"
         sodipodi:rx="55.714287"
         sodipodi:cy="270.93362"
         sodipodi:cx="170"
         id="path4303"
         sodipodi:type="arc" />
    </g>
    <g
       id="g4307"
       transform="translate(96.533334,-203.14285)">
      <path
         style="fill:#000000;filter:url(#filter3236)"
         transform="matrix(1.4358974,0,0,1.4358974,-73.302558,-72.527849)"
         d="M 225.71429 270.93362 A 55.714287 55.714287 0 1 1  114.28571,270.93362 A 55.714287 55.714287 0 1 1  225.71429 270.93362 z"
         sodipodi:ry="55.714287"
         sodipodi:rx="55.714287"
         sodipodi:cy="270.93362"
         sodipodi:cx="170"
         id="path4309"
         sodipodi:type="arc" />
      <path
         style="fill:#ffffff;fill-opacity:1"
         transform="matrix(1.4358974,0,0,1.4358974,-73.302558,-72.527849)"
         d="M 225.71429 270.93362 A 55.714287 55.714287 0 1 1  114.28571,270.93362 A 55.714287 55.714287 0 1 1  225.71429 270.93362 z"
         sodipodi:ry="55.714287"
         sodipodi:rx="55.714287"
         sodipodi:cy="270.93362"
         sodipodi:cx="170"
         id="path4311"
         sodipodi:type="arc" />
      <path
         style="fill:url(#linearGradient4315);fill-opacity:1"
         transform="matrix(1.4358974,0,0,1.4358974,-73.302558,-72.527849)"
         d="M 225.71429 270.93362 A 55.714287 55.714287 0 1 1  114.28571,270.93362 A 55.714287 55.714287 0 1 1  225.71429 270.93362 z"
         sodipodi:ry="55.714287"
         sodipodi:rx="55.714287"
         sodipodi:cy="270.93362"
         sodipodi:cx="170"
         id="path4313"
         sodipodi:type="arc" />
    </g>
    <g
       id="g4327"
       transform="translate(267.86667,-198.47619)">
      <path
         style="fill:#000000;filter:url(#filter3236)"
         transform="matrix(1.4358974,0,0,1.4358974,-73.302558,-72.527849)"
         d="M 225.71429 270.93362 A 55.714287 55.714287 0 1 1  114.28571,270.93362 A 55.714287 55.714287 0 1 1  225.71429 270.93362 z"
         sodipodi:ry="55.714287"
         sodipodi:rx="55.714287"
         sodipodi:cy="270.93362"
         sodipodi:cx="170"
         id="path4329"
         sodipodi:type="arc" />
      <path
         style="fill:#ffffff;fill-opacity:1"
         transform="matrix(1.4358974,0,0,1.4358974,-73.302558,-72.527849)"
         d="M 225.71429 270.93362 A 55.714287 55.714287 0 1 1  114.28571,270.93362 A 55.714287 55.714287 0 1 1  225.71429 270.93362 z"
         sodipodi:ry="55.714287"
         sodipodi:rx="55.714287"
         sodipodi:cy="270.93362"
         sodipodi:cx="170"
         id="path4331"
         sodipodi:type="arc" />
      <path
         style="fill:url(#linearGradient4335);fill-opacity:1"
         transform="matrix(1.4358974,0,0,1.4358974,-73.302558,-72.527849)"
         d="M 225.71429 270.93362 A 55.714287 55.714287 0 1 1  114.28571,270.93362 A 55.714287 55.714287 0 1 1  225.71429 270.93362 z"
         sodipodi:ry="55.714287"
         sodipodi:rx="55.714287"
         sodipodi:cy="270.93362"
         sodipodi:cx="170"
         id="path4333"
         sodipodi:type="arc" />
    </g>
    <g
       id="g4347"
       transform="translate(447.26042,-198.35715)">
      <path
         id="path4349"
         d="M 118.72381,268.886 L 146.12381,268.886 L 175.32381,314.286 L 146.12381,359.886 L 118.52381,359.486 L 147.52381,314.086 L 118.72381,268.886 z "
         style="fill:#ffffff;fill-rule:evenodd;stroke:none;stroke-width:1px;stroke-linecap:butt;stroke-linejoin:miter;stroke-opacity:1" />
      <rect
         y="268.89548"
         x="179.0667"
         height="90.800003"
         width="19.888653"
         id="rect4351"
         style="fill:#ffffff;stroke:none" />
    </g>
    <g
       id="g4272"
       transform="translate(66.866657,-207.68333)">
      <path
         id="path3281"
         d="M 368.2,280.36218 L 395.6,280.36218 L 424.8,325.76218 L 395.6,371.36218 L 368,370.96218 L 397,325.56218 L 368.2,280.36218 z "
         style="fill:#ffffff;fill-rule:evenodd;stroke:none;stroke-width:1px;stroke-linecap:butt;stroke-linejoin:miter;stroke-opacity:1" />
      <path
         id="path3283"
         d="M 328.6,280.06218 L 356,280.06218 L 385.2,325.46218 L 356,371.06218 L 328.4,370.66218 L 357.4,325.26218 L 328.6,280.06218 z "
         style="fill:#ffffff;fill-rule:evenodd;stroke:none;stroke-width:1px;stroke-linecap:butt;stroke-linejoin:miter;stroke-opacity:1" />
    </g>
    <g
       id="g4359"
       transform="matrix(-1,0,0,1,643.93334,-208.35)">
      <path
         id="path4361"
         d="M 368.2,280.36218 L 395.6,280.36218 L 424.8,325.76218 L 395.6,371.36218 L 368,370.96218 L 397,325.56218 L 368.2,280.36218 z "
         style="fill:#ffffff;fill-rule:evenodd;stroke:none;stroke-width:1px;stroke-linecap:butt;stroke-linejoin:miter;stroke-opacity:1" />
      <path
         id="path4363"
         d="M 328.6,280.06218 L 356,280.06218 L 385.2,325.46218 L 356,371.06218 L 328.4,370.66218 L 357.4,325.26218 L 328.6,280.06218 z "
         style="fill:#ffffff;fill-rule:evenodd;stroke:none;stroke-width:1px;stroke-linecap:butt;stroke-linejoin:miter;stroke-opacity:1" />
    </g>
    <path
       style="fill:#ffffff;fill-opacity:1;stroke:none"
       d="M 60.66067,269.02285 C 45.04775,284.63577 45.04774,309.97847 60.66067,325.59139 C 73.83407,338.76479 93.93624,340.83528 109.27426,331.77858 L 134.90688,357.4112 L 149.04902,343.26906 L 123.4164,317.63644 C 132.47311,302.29843 130.4026,282.19624 117.22921,269.02285 C 101.6163,253.40993 76.27359,253.40992 60.66067,269.02285 z M 74.0736,283.89419 C 74.30231,283.64103 74.55885,283.40894 74.80281,283.16499 C 82.60927,275.35851 95.28062,275.35853 103.08708,283.16499 C 110.89353,290.97144 110.89354,303.6428 103.08708,311.44926 C 95.28062,319.2557 82.60927,319.25572 74.80281,311.44926 C 67.24029,303.88674 66.98375,291.74204 74.0736,283.89419 z "
       id="path4419" />
    <path
       sodipodi:type="arc"
       id="path2203"
       sodipodi:cx="170"
       sodipodi:cy="270.93362"
       sodipodi:rx="55.714287"
       sodipodi:ry="55.714287"
       d="M 225.71429 270.93362 A 55.714287 55.714287 0 1 1  114.28571,270.93362 A 55.714287 55.714287 0 1 1  225.71429 270.93362 z"
       transform="matrix(1.4358974,0,0,1.4358974,52.89744,-77.670704)"
       style="fill:url(#linearGradient2205);fill-opacity:1"
       inkscape:export-filename="/Users/ionathan/Work/workspace/thinkstuff/thinkcap/plugins/org.integratedmodelling.thinkcap.core/webapp/images/icons/iemss48.png"
       inkscape:export-xdpi="27"
       inkscape:export-ydpi="27" />
    <path
       style="fill:#ffffff"
       d="M 316.71776,365.14655 C 312.52412,364.70679 309.32444,361.83733 308.6142,357.87931 C 308.41749,356.78305 308.15534,353.55905 308.2548,353.45958 C 308.29971,353.41467 309.69051,353.38972 311.34545,353.40413 L 314.35446,353.43031 L 314.52623,354.81446 C 314.84557,357.38772 315.33614,358.33061 316.58487,358.77118 C 317.13944,358.96686 317.83663,358.95564 318.25915,358.74423 C 319.26322,358.24187 319.44694,356.25417 318.63864,354.63851 C 318.10596,353.57382 317.34361,352.90795 315.24425,351.67368 C 311.88925,349.7012 310.59086,348.71786 309.47007,347.30061 C 308.53109,346.11325 308.02086,344.9214 307.73478,343.24708 C 307.0651,339.32772 308.68908,336.51533 312.05255,335.76955 C 313.29685,335.49365 315.53392,335.54734 316.72725,335.88174 C 319.76872,336.734 321.94144,339.15944 322.69504,342.54367 C 322.79331,342.98492 322.8551,343.40156 322.83238,343.46954 C 322.80066,343.56445 322.15354,343.5931 320.04315,343.5931 C 317.9607,343.5931 317.27254,343.56318 317.20152,343.46954 C 317.14998,343.40156 317.03377,342.99003 316.9433,342.55501 C 316.72322,341.497 316.33841,340.7601 315.81326,340.391 C 315.462,340.14413 315.29743,340.09664 314.77207,340.09057 C 313.72842,340.0785 313.27574,340.52565 313.28546,341.55904 C 313.29571,342.64747 313.81783,343.47705 314.99709,344.27854 C 315.29616,344.4818 316.47178,345.1743 317.60959,345.81743 C 320.70331,347.56611 321.79362,348.35657 322.81482,349.59112 C 324.16943,351.22875 325.02194,353.47684 325.43297,356.49518 C 325.71288,358.55076 325.46547,360.53925 324.7562,361.93456 C 324.35402,362.72572 323.37678,363.7362 322.51094,364.25617 C 321.62328,364.78925 320.27978,365.12329 318.79082,365.18109 C 318.09087,365.20827 317.15799,365.19273 316.71776,365.14655 z M 242.08247,364.35405 C 242.0219,364.25604 254.33165,331.10631 254.51856,330.86405 C 254.59458,330.76552 263.21201,330.74048 297.02056,330.74048 L 339.4272,330.74048 L 339.57637,331.0975 C 340.19033,332.56691 351.96067,364.29527 351.91764,364.36488 C 351.88554,364.41683 347.33298,364.45392 340.99101,364.45392 L 330.11942,364.45392 L 330.02138,364.23148 C 329.86317,363.87248 328.737,358.70489 328.79614,358.60921 C 328.82656,358.55999 332.18777,358.52193 336.50639,358.52193 C 343.01319,358.52193 344.16271,358.5011 344.16271,358.38314 C 344.16271,358.24324 336.54323,335.41663 336.29695,334.81872 L 336.16462,334.49741 L 297.02056,334.49741 C 265.82162,334.49741 257.85733,334.52248 257.78203,334.62097 C 257.65207,334.79097 249.8423,358.1335 249.84331,358.34892 C 249.84407,358.51103 250.11513,358.52193 254.1448,358.52193 C 258.17488,358.52193 258.44548,358.53282 258.44527,358.69496 C 258.445,358.89466 257.01108,364.19646 256.91553,364.35106 C 256.82846,364.49195 242.16952,364.49488 242.08247,364.35405 z M 260.57482,364.36104 C 260.52334,364.27775 267.19074,336.34527 267.30701,336.15714 C 267.33349,336.1143 270.24576,336.07925 273.77873,336.07925 C 279.33569,336.07925 280.20984,336.09885 280.25802,336.22442 C 280.31291,336.36747 279.73131,340.89482 279.63883,341.04447 C 279.61265,341.0868 277.9255,341.12145 275.88959,341.12145 C 273.85367,341.12145 272.18752,341.13257 272.18699,341.14617 C 272.18648,341.15976 272.00851,342.08176 271.79152,343.19509 C 271.57453,344.30838 271.397,345.29828 271.397,345.39486 C 271.397,345.55989 271.6165,345.57044 275.04921,345.57044 C 277.05793,345.57044 278.72327,345.60578 278.74998,345.64894 C 278.81182,345.74901 278.0809,351.02901 277.98335,351.18684 C 277.92898,351.2748 276.9346,351.30469 274.06244,351.30469 L 270.21437,351.30469 L 270.16453,351.52713 C 270.05558,352.01343 269.0242,357.36891 269.0242,357.44834 C 269.0242,357.49505 270.97913,357.53327 273.36848,357.53327 C 276.2965,357.53327 277.7337,357.56714 277.77695,357.6371 C 277.85163,357.75794 277.061,363.90076 276.9282,364.23148 L 276.83889,364.45392 L 268.73556,364.45392 C 263.78807,364.45392 260.60988,364.41775 260.57482,364.36104 z M 280.13939,364.32229 C 280.11106,364.24846 280.7907,357.87467 281.6497,350.15837 L 283.21154,336.1287 L 287.20955,336.10284 C 289.40847,336.08862 291.24144,336.11087 291.28287,336.15229 C 291.32428,336.1937 291.87412,339.36413 292.50474,343.19766 C 293.13535,347.03119 293.67614,350.23447 293.70651,350.31603 C 293.7508,350.43498 293.77859,350.42518 293.84689,350.26659 C 293.89374,350.15784 294.60659,346.97682 295.43099,343.19765 C 296.2554,339.41847 296.97414,336.27082 297.02821,336.20285 C 297.10383,336.10775 298.02228,336.07925 301.01375,336.07925 C 304.01533,336.07925 304.91914,336.10741 304.98047,336.20285 C 305.08659,336.36799 306.88812,364.28451 306.79889,364.38113 C 306.76054,364.42266 305.24156,364.44491 303.42343,364.43056 L 300.11771,364.40449 L 300.11771,353.70219 C 300.11771,347.81592 300.08739,343.09999 300.05036,343.22235 C 300.01334,343.34471 299.13242,348.07176 298.09279,353.72692 C 297.05316,359.38208 296.16124,364.10912 296.11076,364.23148 L 296.01898,364.45392 L 293.45844,364.45392 C 291.52573,364.45392 290.87499,364.42362 290.80448,364.33034 C 290.7531,364.26238 290.09793,359.60205 289.34858,353.9741 C 288.5992,348.34611 287.95107,343.56345 287.90828,343.34594 C 287.83281,342.96229 287.82997,342.96819 287.81249,343.54369 C 287.80259,343.86993 287.58639,348.69709 287.33205,354.27069 L 286.86959,364.40449 L 283.53025,364.43053 C 280.79039,364.45189 280.18166,364.43246 280.13939,364.32229 z M 331.50779,357.18281 C 328.78519,356.60233 326.56275,354.6074 325.84038,352.09563 C 325.57348,351.16759 325.16883,349.12937 325.23138,349.02814 C 325.32575,348.87548 329.67954,348.90153 329.80341,349.05549 C 329.8581,349.12344 329.95354,349.42376 330.01552,349.72283 C 330.41975,351.67348 331.00691,352.55358 332.06176,352.78997 C 332.6487,352.92151 332.99935,352.84713 333.29969,352.52737 C 333.50016,352.31392 333.53379,352.18031 333.52927,351.61498 C 333.52317,350.85344 333.32539,350.28181 332.83848,349.6185 C 332.42873,349.06032 331.73094,348.56661 330.12365,347.69771 C 326.00864,345.47311 324.66045,344.1385 323.88008,341.51691 C 323.59139,340.54718 323.52544,338.92199 323.74739,338.24744 C 324.194,336.89006 325.18229,336.10171 326.84416,335.77718 C 327.61007,335.62762 329.32624,335.70928 330.17309,335.93558 C 332.09715,336.44975 333.70084,337.7714 334.65717,339.63106 C 335.13843,340.5669 335.51783,341.69882 335.39233,341.82432 C 335.33948,341.87715 334.40218,341.90502 333.19304,341.88969 L 331.08581,341.86295 L 330.8755,341.22032 C 330.44582,339.90745 329.95197,339.33158 329.13778,339.19404 C 328.66496,339.11414 328.26213,339.28571 328.05503,339.65518 C 327.72386,340.246 328.32678,341.45201 329.28183,342.1091 C 329.51884,342.27218 330.52817,342.83378 331.5248,343.35711 C 334.3343,344.83238 335.31252,345.52462 336.24518,346.69749 C 337.13766,347.81981 337.91383,349.54833 338.29174,351.25527 C 338.54939,352.4189 338.52667,354.04987 338.24261,354.78126 C 337.78671,355.95511 336.85652,356.75329 335.48846,357.14452 C 334.67615,357.37681 332.51519,357.39758 331.50779,357.18281 z M 254.6379,356.71763 C 254.61344,356.64966 255.62995,353.07934 256.89676,348.7836 L 259.20011,340.97315 L 261.24735,340.94642 C 262.96137,340.92405 263.30355,340.94302 263.34958,341.06297 C 263.39647,341.18514 259.40845,356.54397 259.27289,356.76333 C 259.24641,356.80616 258.20271,356.84122 256.95355,356.84122 C 255.22624,356.84122 254.67173,356.81161 254.6379,356.71763 z M 259.60944,339.81829 C 259.57078,339.70228 260.42836,336.70569 260.56223,336.48911 C 260.61095,336.41029 261.21755,336.37586 262.55739,336.37586 C 264.18542,336.37586 264.49142,336.39897 264.54,336.52555 C 264.59102,336.65852 264.00196,339.11534 263.77755,339.7056 L 263.6903,339.93506 L 261.66934,339.93506 C 260.20342,339.93506 259.63768,339.90298 259.60944,339.81829 z M 254.3389,327.35441 C 254.31308,327.28638 254.30332,311.54802 254.31725,292.3803 L 254.34254,257.52988 L 296.65737,257.52988 L 338.97221,257.52988 L 338.97221,292.47916 L 338.97221,327.42846 L 296.67903,327.45328 C 262.89626,327.47311 254.37641,327.45323 254.3389,327.35441 z M 334.72094,292.47916 L 334.72094,261.78114 L 296.65737,261.78114 L 258.5938,261.78114 L 258.56848,292.3803 C 258.55457,309.20983 258.56431,323.03514 258.59015,323.10317 C 258.62765,323.20197 266.29729,323.22188 296.67903,323.20203 L 334.72094,323.17719 L 334.72094,292.47916 z M 293.59252,320.55001 C 285.98471,320.00811 278.94025,317.55346 273.22602,313.45327 C 270.87221,311.76431 268.43263,309.41241 266.72405,307.18504 C 259.84223,298.21351 259.78849,286.67433 266.58685,277.7137 C 272.66515,269.70211 283.12325,264.61529 294.54908,264.11283 C 301.78559,263.79461 308.57466,265.11906 314.73277,268.0504 C 320.44314,270.76859 325.35471,275.08319 328.33562,279.99993 C 333.54976,288.6002 332.91991,298.98077 326.68922,307.13449 C 319.67361,316.31536 306.88987,321.49717 293.59252,320.55001 z M 295.12495,311.85699 L 295.12495,306.71594 L 292.24682,306.71594 L 289.36868,306.71594 L 289.43797,307.08668 C 289.59804,307.94323 290.64409,310.82124 291.26868,312.12354 C 292.02684,313.70435 292.77457,314.89284 293.55086,315.75102 C 294.04108,316.29295 294.88113,316.98998 295.05078,316.99559 C 295.09157,316.99693 295.12495,314.68457 295.12495,311.85699 z M 299.03047,316.50347 C 300.73099,315.19151 302.52396,311.89223 303.71131,307.89012 C 303.8827,307.31242 304.02293,306.81191 304.02293,306.77786 C 304.02293,306.7438 302.73271,306.71594 301.15579,306.71594 L 298.28868,306.71594 L 298.28868,311.80755 C 298.28868,315.59827 298.31792,316.89917 298.40312,316.89917 C 298.46606,316.89917 298.74838,316.72111 299.03047,316.50347 z M 305.69631,315.00357 C 308.58391,313.30521 311.1046,310.86874 313.03759,307.90753 C 313.40842,307.33946 313.71183,306.83832 313.71183,306.79393 C 313.71183,306.74952 312.27791,306.72493 310.52535,306.73928 L 307.33887,306.76537 L 307.0606,307.80345 C 306.29581,310.65661 304.88455,314.11494 303.90747,315.53031 C 303.80785,315.67464 303.72632,315.83903 303.72632,315.89562 C 303.72632,316.03516 304.66528,315.60999 305.69631,315.00357 z M 289.58842,315.8646 C 289.58842,315.83934 289.33822,315.36108 289.03242,314.80178 C 287.90416,312.73833 286.8504,309.95608 286.12908,307.13612 L 286.02161,306.71594 L 282.8617,306.71594 C 280.7982,306.71594 279.70178,306.75061 279.70178,306.81587 C 279.70178,306.99642 280.70749,308.52516 281.51112,309.56617 C 283.48969,312.12919 285.91778,314.12173 289.04466,315.7483 C 289.33714,315.90046 289.58842,315.9542 289.58842,315.8646 z M 280.55754,313.31527 C 278.89089,311.52895 277.52608,309.63514 276.44283,307.60573 L 275.99428,306.76537 L 273.30018,306.73906 C 271.62837,306.72274 270.60607,306.74874 270.60607,306.80756 C 270.60607,306.96973 271.67574,308.06738 272.7713,309.02945 C 274.05991,310.16105 275.68642,311.34929 277.21224,312.27376 C 278.4102,312.99961 281.22747,314.42752 281.46157,314.42752 C 281.53511,314.42752 281.1283,313.92701 280.55754,313.31527 z M 313.33115,313.79251 C 315.91808,312.5574 318.45817,310.89842 320.53797,309.08564 C 321.49142,308.25458 322.80754,306.91323 322.80754,306.77255 C 322.80754,306.73966 321.59582,306.72459 320.11482,306.73906 L 317.42212,306.76537 L 317.03282,307.45743 C 315.73092,309.77193 314.44393,311.57068 312.87498,313.26862 C 312.05892,314.15177 311.84086,314.42752 311.95845,314.42752 C 311.98194,314.42752 312.59966,314.14175 313.33115,313.79251 z M 274.48261,303.49849 C 274.51217,303.46895 274.36057,302.87945 274.14574,302.18851 C 273.43586,299.90538 272.97705,297.46301 272.72571,294.6295 L 272.66652,293.96216 L 268.71974,293.96216 L 264.77296,293.96216 L 264.77296,294.24623 C 264.77296,294.85985 265.37471,297.63107 265.74177,298.70775 C 266.2143,300.09381 266.98722,301.80109 267.59661,302.80486 L 268.05034,303.55221 L 271.23963,303.55221 C 272.99372,303.55221 274.45306,303.52803 274.48261,303.49849 z M 285.33716,303.50819 C 285.33716,303.48399 285.25059,302.87225 285.1448,302.14877 C 284.81521,299.89525 284.44736,295.70593 284.44736,294.206 L 284.44736,293.96216 L 280.19612,293.96216 L 275.94486,293.96216 L 275.94486,294.53666 C 275.94486,296.45167 276.82567,300.50616 277.73699,302.78598 L 278.04327,303.55221 L 281.69021,303.55221 C 283.69605,303.55221 285.33716,303.5324 285.33716,303.50819 z M 295.12495,298.75718 L 295.12495,293.96216 L 291.36685,293.96216 L 287.60877,293.96216 L 287.65548,294.33291 C 287.68116,294.53682 287.72779,295.371 287.75908,296.18666 C 287.823,297.85317 288.11741,300.6515 288.40707,302.34585 C 288.51304,302.96578 288.59976,303.49081 288.59976,303.5126 C 288.59976,303.53438 290.06792,303.55221 291.86235,303.55221 L 295.12495,303.55221 L 295.12495,298.75718 z M 304.98173,302.21751 C 305.26743,300.52765 305.58024,297.46272 305.66536,295.51931 L 305.73353,293.96216 L 302.0111,293.96216 L 298.28868,293.96216 L 298.28868,298.75853 L 298.28868,303.55491 L 301.52655,303.52884 L 304.76443,303.50277 L 304.98173,302.21751 z M 315.5389,303.02235 C 315.88003,302.25102 316.53164,300.11789 316.8267,298.80661 C 317.08884,297.64157 317.46845,294.99618 317.46864,294.33291 L 317.46875,293.96216 L 313.1835,293.96216 L 308.89826,293.96216 L 308.83071,295.7614 C 308.76249,297.57829 308.49192,300.44052 308.22508,302.16807 C 308.14528,302.68465 308.0792,303.2074 308.07821,303.32976 L 308.07645,303.55221 L 311.69051,303.55221 L 315.30458,303.55221 L 315.5389,303.02235 z M 325.72213,302.87368 C 326.33656,301.92386 327.27604,299.82962 327.70934,298.44387 C 328.12994,297.0988 328.54088,295.11734 328.54142,294.43178 L 328.5418,293.96216 L 324.58714,293.96216 L 320.63248,293.96216 L 320.63236,294.53064 C 320.63205,296.13871 319.96103,299.82575 319.25142,302.11864 C 319.03263,302.82555 318.85346,303.43728 318.85326,303.47806 C 318.85306,303.51884 320.2997,303.55221 322.06803,303.55221 L 325.28319,303.55221 L 325.72213,302.87368 z M 272.7256,290.08166 C 272.99103,287.08085 273.47358,284.60015 274.25846,282.20152 C 274.53346,281.36113 274.75845,280.66041 274.75845,280.64437 C 274.75845,280.62831 273.34166,280.61519 271.61006,280.61519 C 268.73396,280.61519 268.44883,280.63017 268.31337,280.7882 C 268.01485,281.13652 267.13553,282.69264 266.64498,283.74076 C 266.36791,284.3327 265.94625,285.41763 265.7079,286.15171 C 265.30053,287.40653 264.77296,289.86489 264.77296,290.50842 L 264.77296,290.79843 L 268.71756,290.79843 L 272.66219,290.79843 L 272.7256,290.08166 z M 284.48377,290.13108 C 284.51482,289.76405 284.56617,288.97436 284.59786,288.3762 C 284.70245,286.40257 285.16084,282.5619 285.43226,281.38526 C 285.6278,280.53756 285.97997,280.61519 281.93837,280.61519 C 279.179,280.61519 278.3192,280.64396 278.2445,280.73877 C 278.08701,280.93866 277.37779,282.85354 277.04527,283.97665 C 276.45679,285.96417 275.94486,288.87148 275.94486,290.22584 L 275.94486,290.79843 L 280.18609,290.79843 L 284.4273,290.79843 L 284.48377,290.13108 z M 295.12495,285.70681 L 295.12495,280.61519 L 291.97177,280.61519 L 288.81862,280.61519 L 288.70676,281.23311 C 288.14226,284.35126 287.84403,286.82139 287.74584,289.19185 L 287.67929,290.79843 L 291.40212,290.79843 L 295.12495,290.79843 L 295.12495,285.70681 z M 305.66057,289.48844 C 305.52104,286.81831 305.21451,284.2987 304.64124,281.10953 L 304.56128,280.66464 L 301.42498,280.63853 L 298.28868,280.61242 L 298.28868,285.70543 L 298.28868,290.79843 L 302.00884,290.79843 L 305.72903,290.79843 L 305.66057,289.48844 z M 317.46805,290.37825 C 317.46695,289.72062 317.10705,287.20766 316.83445,285.95398 C 316.52757,284.54277 315.99858,282.80448 315.50628,281.58968 L 315.13143,280.66464 L 311.57969,280.63864 C 309.62624,280.62434 307.9769,280.63224 307.91448,280.6562 C 307.83006,280.68857 307.83426,280.85985 307.93086,281.32481 C 308.29694,283.08666 308.71796,286.80825 308.82643,289.24128 L 308.89586,290.79843 L 313.1823,290.79843 L 317.46875,290.79843 L 317.46805,290.37825 z M 328.55984,290.3041 C 328.50247,289.37759 328.03446,287.24051 327.61801,286.00341 C 327.14091,284.58616 326.25365,282.67599 325.5055,281.45555 L 325.02066,280.66464 L 321.83792,280.63854 C 320.0874,280.6242 318.65516,280.64931 318.65516,280.69436 C 318.65516,280.73943 318.85854,281.39625 319.10715,282.15401 C 319.88944,284.53861 320.63248,288.4445 320.63248,290.17221 L 320.63248,290.80069 L 324.60993,290.77483 L 328.58739,290.74901 L 328.55984,290.3041 z M 276.6884,276.63583 C 277.82725,274.67455 279.19517,272.83961 280.87196,271.02393 C 281.72167,270.10386 281.70777,270.10434 279.74477,271.06321 C 277.31878,272.24824 274.7531,273.94587 272.82788,275.63992 C 271.86749,276.48498 271.10041,277.26181 271.10041,277.38929 C 271.10041,277.42348 272.25112,277.45147 273.65758,277.45147 L 276.21478,277.45147 L 276.6884,276.63583 z M 286.89719,275.54738 C 287.73621,272.97641 288.58468,271.10017 289.70224,269.34442 C 289.96181,268.9366 290.13751,268.59013 290.09265,268.57449 C 289.9648,268.52995 288.63695,269.16094 287.60606,269.75613 C 285.54815,270.94429 283.3764,272.82606 281.81069,274.77771 C 281.01256,275.77256 280.15141,276.99752 280.03274,277.3068 C 279.98472,277.43192 280.4028,277.45134 283.12681,277.45056 L 286.27639,277.44965 L 286.89719,275.54738 z M 295.12495,272.85418 C 295.12495,270.32566 295.09959,268.25688 295.06861,268.25688 C 295.03763,268.25688 294.82194,268.38783 294.58932,268.5479 C 293.56608,269.2519 292.28838,271.00575 291.31048,273.04862 C 290.71845,274.28544 289.88263,276.45732 289.73979,277.13016 L 289.67158,277.45147 L 292.39825,277.45147 L 295.12495,277.45147 L 295.12495,272.85418 z M 303.66346,277.37435 C 303.71781,277.28637 303.00193,275.15295 302.59452,274.18886 C 301.8661,272.46517 300.90089,270.79658 300.02097,269.73988 C 299.57133,269.19995 298.59278,268.35575 298.41653,268.35575 C 298.31381,268.35575 298.28868,269.25007 298.28868,272.90361 L 298.28868,277.45147 L 300.95223,277.45147 C 302.41718,277.45147 303.63723,277.41677 303.66346,277.37435 z M 313.31637,277.33653 C 313.31637,277.17328 312.78179,276.35635 312.02537,275.36361 C 310.22897,273.00606 308.15302,271.15362 305.6951,269.71496 C 304.6894,269.12632 303.34539,268.50599 303.26022,268.59117 C 303.23123,268.62016 303.42758,268.99058 303.69657,269.41433 C 304.94764,271.38527 305.97125,273.72257 306.74016,276.36393 C 306.89054,276.88052 307.0329,277.33653 307.05651,277.37732 C 307.13216,277.50796 313.31637,277.46767 313.31637,277.33653 z M 322.3132,277.37446 C 322.3132,277.3321 322.03516,277.02895 321.6953,276.70077 C 319.97368,275.03829 318.15264,273.64186 316.08463,272.39835 C 314.79427,271.62244 311.93816,270.19534 311.85072,270.28278 C 311.82292,270.31058 312.10905,270.65582 312.48656,271.04997 C 314.30688,272.95062 315.10445,274.0325 317.04188,277.22901 C 317.17615,277.45055 317.18745,277.45147 319.74497,277.45147 C 321.15749,277.45147 322.3132,277.41681 322.3132,277.37446 z "
       id="path2284"
       inkscape:export-filename="/Users/ionathan/Work/workspace/thinkstuff/thinkcap/plugins/org.integratedmodelling.thinkcap.core/webapp/images/icons/iemss48.png"
       inkscape:export-xdpi="27"
       inkscape:export-ydpi="27" />
  </g>
</svg>
